<?xml version="1.0" encoding="UTF-8" standalone="no"?>
<svg
   viewBox="0 0 24 24"
   preserveAspectRatio="xMidYMid meet"
   focusable="false"
   class="style-scope yt-icon"
   style="pointer-events: none; display: block; width: 100%; height: 100%;"
   version="1.1"
   id="svg1"
   sodipodi:docname="explore.svg"
   inkscape:version="1.3.2 (091e20ef0f, 2023-11-25)"
   xmlns:inkscape="http://www.inkscape.org/namespaces/inkscape"
   xmlns:sodipodi="http://sodipodi.sourceforge.net/DTD/sodipodi-0.dtd"
   xmlns="http://www.w3.org/2000/svg"
   xmlns:svg="http://www.w3.org/2000/svg">
  <defs
     id="defs1" />
  <sodipodi:namedview
     id="namedview1"
     pagecolor="#ffffff"
     bordercolor="#000000"
     borderopacity="0.25"
     inkscape:showpageshadow="2"
     inkscape:pageopacity="0.0"
     inkscape:pagecheckerboard="0"
     inkscape:deskcolor="#d1d1d1"
     inkscape:zoom="33.25"
     inkscape:cx="12"
     inkscape:cy="12"
     inkscape:window-width="1920"
     inkscape:window-height="996"
     inkscape:window-x="1366"
     inkscape:window-y="0"
     inkscape:window-maximized="1"
     inkscape:current-layer="svg1" />
  <g
     class="style-scope yt-icon"
     id="g1"
     style="fill:#ffffff;fill-opacity:1">
    <path
       d="M9.8,9.8l-3.83,8.23l8.23-3.83l3.83-8.23L9.8,9.8z M13.08,12.77c-0.21,0.29-0.51,0.48-0.86,0.54 c-0.07,0.01-0.15,0.02-0.22,0.02c-0.28,0-0.54-0.08-0.77-0.25c-0.29-0.21-0.48-0.51-0.54-0.86c-0.06-0.35,0.02-0.71,0.23-0.99 c0.21-0.29,0.51-0.48,0.86-0.54c0.35-0.06,0.7,0.02,0.99,0.23c0.29,0.21,0.48,0.51,0.54,0.86C13.37,12.13,13.29,12.48,13.08,12.77z M12,3c4.96,0,9,4.04,9,9s-4.04,9-9,9s-9-4.04-9-9S7.04,3,12,3 M12,2C6.48,2,2,6.48,2,12s4.48,10,10,10s10-4.48,10-10S17.52,2,12,2 L12,2z"
       class="style-scope yt-icon"
       id="path1"
       style="fill:#ffffff;fill-opacity:1" />
  </g>
</svg>
